<?xml version="1.0" encoding="utf-8"?>
<!-- Generator: Adobe Illustrator 23.0.4, SVG Export Plug-In . SVG Version: 6.00 Build 0)  -->
<svg version="1.1" id="Warstwa_1" xmlns="http://www.w3.org/2000/svg" xmlns:xlink="http://www.w3.org/1999/xlink" x="0px" y="0px"
	 viewBox="0 0 68 53" style="enable-background:new 0 0 68 53;" xml:space="preserve">
<style type="text/css">
	.st0{fill:#ED4C5C;}
</style>
<path class="st0" d="M42.4,41.1h-5.6V22.9c0-0.3-0.3-0.6-0.6-0.6h-4.5c-0.3,0-0.6,0.3-0.6,0.6v18.2h-5.6c-0.5,0-0.8,0.6-0.5,1
	l8.4,10.7c0.1,0.1,0.1,0.1,0.2,0.2c0.1,0,0.2,0.1,0.3,0.1c0.1,0,0.2,0,0.3-0.1c0.1,0,0.2-0.1,0.2-0.2l8.4-10.7
	C43.2,41.7,42.9,41.1,42.4,41.1z"/>
<path class="st0" d="M56.5,15.6C53.1,6.5,44.3,0,34,0S14.9,6.5,11.5,15.6C5,17.2,0.3,23.1,0.3,30.1c0,8.3,6.7,15.1,15,15.1h3
	c0.3,0,0.6-0.3,0.6-0.6v-4.5c0-0.3-0.3-0.6-0.6-0.6h-3c-2.5,0-4.9-1-6.7-2.8c-1.8-1.8-2.7-4.3-2.6-6.8c0.1-2,0.7-3.9,2-5.4
	c1.3-1.6,3-2.8,5-3.3l2.9-0.7l1-2.8c0.6-1.7,1.6-3.3,2.7-4.8c1.1-1.4,2.5-2.7,3.9-3.8c3.1-2.2,6.7-3.3,10.5-3.3
	c3.8,0,7.4,1.2,10.5,3.3c1.5,1.1,2.8,2.3,3.9,3.8c1.1,1.5,2,3.1,2.7,4.8l1,2.7l2.8,0.8c4.1,1.1,6.9,4.8,6.9,9c0,2.5-1,4.8-2.7,6.6
	c-0.9,0.9-1.9,1.6-3,2c-1.1,0.5-2.3,0.7-3.6,0.7h-3c-0.3,0-0.6,0.3-0.6,0.6v4.5c0,0.3,0.3,0.6,0.6,0.6h3c8.3,0,15-6.7,15-15.1
	C67.7,23.1,63,17.3,56.5,15.6z"/>
</svg>
