<?xml version="1.0" encoding="utf-8"?>
<!-- Generator: Adobe Illustrator 23.0.4, SVG Export Plug-In . SVG Version: 6.00 Build 0)  -->
<svg version="1.1" id="Warstwa_1" xmlns="http://www.w3.org/2000/svg" xmlns:xlink="http://www.w3.org/1999/xlink" x="0px" y="0px"
	 viewBox="0 0 28 28" style="enable-background:new 0 0 28 28;" xml:space="preserve">
<style type="text/css">
	.st0{fill:#FFFFFF;}
</style>
<path class="st0" d="M14,0C6.3,0,0,6.3,0,14c0,7.7,6.3,14,14,14c7.7,0,14-6.3,14-14C28,6.3,21.7,0,14,0z M8.7,20.1
	c-0.1,0.1-0.2,0.3-0.4,0.4S8,20.6,7.8,20.6c-0.2,0-0.3,0-0.5-0.1c-0.1-0.1-0.2-0.1-0.3-0.3C7,20.1,6.9,20,6.9,19.9
	c0-0.1,0-0.3,0-0.4s0.1-0.2,0.1-0.4l1-1.6c0-0.1,0.1-0.1,0.2-0.2c0.1,0,0.2-0.1,0.3-0.1h0.1c0.7,0,1.2,0.4,1.3,0.8L8.7,20.1z
	 M16.8,17l-6.3,0H6.4c-0.1,0-0.3,0-0.4-0.1c-0.1-0.1-0.2-0.1-0.3-0.2c-0.1-0.1-0.2-0.2-0.2-0.3c0-0.1-0.1-0.3-0.1-0.4
	c0-0.5,0.5-0.9,1-0.9h3L13,9l-1.2-2c-0.3-0.4-0.1-1,0.3-1.3c0.1-0.1,0.2-0.1,0.4-0.1c0.1,0,0.3,0,0.4,0c0.1,0,0.2,0.1,0.4,0.2
	c0.1,0.1,0.2,0.2,0.3,0.3l0.6,1.1h0L14.7,6c0.1-0.1,0.2-0.2,0.3-0.3c0.1-0.1,0.2-0.1,0.4-0.2s0.3,0,0.4,0c0.1,0,0.3,0.1,0.4,0.1
	C16.5,6,16.7,6.6,16.4,7l-1.2,2l-1.1,1.9l-2.4,4.2v0h3.6c0.5,0,1,0.2,1.2,0.6l0,0c0.2,0.3,0.3,0.6,0.3,0.9
	C16.8,16.8,16.8,16.9,16.8,17L16.8,17z M21.6,17h-1.7v0l1.2,2.1c0.1,0.2,0.2,0.5,0.1,0.7c-0.1,0.3-0.2,0.5-0.4,0.6
	c-0.2,0.1-0.3,0.1-0.5,0.1c-0.2,0-0.3,0-0.5-0.1c-0.1-0.1-0.3-0.2-0.4-0.3L17.7,17l-1.1-1.9l-1.5-2.5c-0.2-0.4-0.3-0.8-0.3-1.2
	c0-0.4,0.1-0.8,0.3-1.2c0.3-0.5,0.5-0.6,0.5-0.6l3.3,5.5h2.8c0.5,0,1,0.4,1,0.9c0,0.1,0,0.3-0.1,0.4c0,0.1-0.1,0.2-0.2,0.3
	c-0.1,0.1-0.2,0.2-0.3,0.2C21.9,17,21.8,17,21.6,17L21.6,17z"/>
</svg>
