<?xml version="1.0" encoding="utf-8"?>
<!-- Generator: Adobe Illustrator 23.0.4, SVG Export Plug-In . SVG Version: 6.00 Build 0)  -->
<svg version="1.1" id="Warstwa_1" xmlns="http://www.w3.org/2000/svg" xmlns:xlink="http://www.w3.org/1999/xlink" x="0px" y="0px"
	 viewBox="0 0 68 53" style="enable-background:new 0 0 68 53;" xml:space="preserve">
<style type="text/css">
	.st0{fill:#ED4C5C;}
</style>
<path class="st0" d="M54.5,19h-1.3v-6.1c0,0,0-0.1,0-0.1c0-0.2-0.1-0.5-0.2-0.7L42.8,0.4l0,0c-0.1-0.1-0.1-0.1-0.2-0.2l-0.1,0
	c-0.1,0-0.1-0.1-0.2-0.1l-0.1,0c-0.1,0-0.2,0-0.2,0H16.8c-1.1,0-2.1,0.9-2.1,2.1V19h-1.3c-1.6,0-3,1.3-3,3v15.4c0,1.6,1.3,3,3,3h1.3
	v10.6c0,1.1,0.9,2.1,2.1,2.1h34.3c1.1,0,2.1-0.9,2.1-2.1V40.3h1.3c1.6,0,3-1.3,3-3V21.9C57.5,20.3,56.2,19,54.5,19z M16.8,2.1h24.1
	v10.6c0,0.6,0.5,1,1,1h9.2V19H16.8V2.1z M32.4,30.6c-2.5-0.9-4.2-2.3-4.2-4.5c0-2.6,2.2-4.5,5.8-4.5c1.7,0,3,0.3,3.9,0.8L37.1,25
	c-1-0.5-2.1-0.7-3.2-0.7c-1.5,0-2.2,0.7-2.2,1.5c0,1,0.8,1.4,2.8,2.1c2.7,1,3.9,2.4,3.9,4.5c0,2.5-1.9,4.7-6.1,4.7
	c-1.7,0-3.4-0.5-4.3-0.9l0.7-2.8c1.2,0.6,2.5,0.9,3.8,0.9c1.6,0,2.4-0.7,2.4-1.6C34.9,31.7,34.2,31.2,32.4,30.6z M14.5,29.5
	c0-5.2,3.7-8,8.3-8c1.8,0,3.1,0.4,3.7,0.7l-0.7,2.7c-0.9-0.4-1.9-0.6-2.9-0.6c-2.7,0-4.8,1.6-4.8,5c0,3,1.8,4.9,4.8,4.9
	c1.1,0,2.2-0.2,2.9-0.5l0.5,2.7c-0.6,0.3-2.1,0.7-3.9,0.7C17.2,37.1,14.5,33.8,14.5,29.5z M51.2,50.4H16.8v-10h34.3V50.4z
	 M48.4,36.9h-4l-4.9-15.2h3.8l1.8,6.4c0.5,1.8,1,3.5,1.4,5.4h0.1c0.4-1.8,0.8-3.6,1.4-5.4l1.9-6.5h3.7L48.4,36.9z"/>
</svg>
