<?xml version="1.0" encoding="utf-8"?>
<!-- Generator: Adobe Illustrator 23.0.4, SVG Export Plug-In . SVG Version: 6.00 Build 0)  -->
<svg version="1.1" id="Warstwa_1" xmlns="http://www.w3.org/2000/svg" xmlns:xlink="http://www.w3.org/1999/xlink" x="0px" y="0px"
	 viewBox="0 0 68 53" style="enable-background:new 0 0 68 53;" xml:space="preserve">
<style type="text/css">
	.st0{fill:#ED4C5C;}
</style>
<path class="st0" d="M22.9,27.2c0-1.4-1-2.3-2.7-2.3c-0.7,0-1.2,0.1-1.4,0.1v4.6c0.3,0.1,0.7,0.1,1.2,0.1
	C21.8,29.7,22.9,28.7,22.9,27.2z"/>
<path class="st0" d="M33.8,24.9c-0.8,0-1.3,0.1-1.6,0.1v10.2c0.3,0.1,0.8,0.1,1.2,0.1c3.2,0,5.2-1.7,5.2-5.4
	C38.7,26.6,36.8,24.9,33.8,24.9z"/>
<path class="st0" d="M54.5,19h-1.3v-6.1c0,0,0-0.1,0-0.1c0-0.2-0.1-0.5-0.2-0.7L42.7,0.4l0,0c-0.1-0.1-0.3-0.2-0.5-0.3l-0.1,0
	C42.1,0,42,0,42,0H16.9c-1.1,0-2.1,0.9-2.1,2.1V19h-1.3c-1.6,0-3,1.3-3,3v15.4c0,1.6,1.3,3,3,3h1.3v10.6c0,1.1,0.9,2.1,2.1,2.1h34.3
	c1.1,0,2.1-0.9,2.1-2.1V40.3h1.3c1.6,0,3-1.3,3-3V21.9C57.5,20.3,56.1,19,54.5,19z M16.9,2.1h24.1v10.6c0,0.6,0.5,1,1,1h9.2V19H16.9
	V2.1z M42.4,29.7c0,3-1.1,5-2.6,6.3c-1.6,1.4-4.1,2-7.2,2c-1.8,0-3.1-0.1-4-0.2V22.6c1.3-0.2,3-0.3,4.7-0.3c2.9,0,4.9,0.5,6.4,1.7
	C41.4,25.1,42.4,27,42.4,29.7z M15.3,37.9V22.6c1.1-0.2,2.6-0.3,4.7-0.3c2.2,0,3.7,0.4,4.7,1.2c1,0.8,1.7,2.1,1.7,3.6
	c0,1.5-0.5,2.8-1.4,3.7c-1.2,1.1-3,1.6-5,1.6c-0.5,0-0.9,0-1.2-0.1v5.5H15.3z M51.1,50.4H16.9v-10h34.3V50.4z M54.2,25.2h-6v3.5h5.6
	v2.9h-5.6v6.2h-3.5V22.3h9.5V25.2z"/>
</svg>
