<?xml version="1.0" encoding="utf-8"?>
<!-- Generator: Adobe Illustrator 23.0.4, SVG Export Plug-In . SVG Version: 6.00 Build 0)  -->
<svg version="1.1" id="Warstwa_1" xmlns="http://www.w3.org/2000/svg" xmlns:xlink="http://www.w3.org/1999/xlink" x="0px" y="0px"
	 viewBox="0 0 68 53" style="enable-background:new 0 0 68 53;" xml:space="preserve">
<style type="text/css">
	.st0{fill-rule:evenodd;clip-rule:evenodd;fill:#ED4C5C;}
</style>
<path class="st0" d="M34.9,0.1l19.6,6.7C54.9,7,55.3,7.5,55.3,8v27.8c0,0.5-0.3,1.2-0.7,1.5L34.7,52.8C34.5,52.9,34.3,53,34,53
	c-0.3,0-0.5-0.1-0.7-0.2L13.4,37.3c-0.4-0.3-0.7-1-0.7-1.5V8c0-0.5,0.4-1.1,0.9-1.2l19.6-6.7C33.4,0,33.7,0,34,0
	C34.3,0,34.6,0,34.9,0.1z M34,48.1l17.2-13.4V10.1L34,4.2l-17.2,5.9v24.6L34,48.1z"/>
<path class="st0" d="M27.7,27.5l-4.5,4.5c-0.1,0.1-0.1,0.2-0.1,0.3c0,0.1,0,0.2,0.1,0.3l2,2c0.2,0.2,0.5,0.2,0.7,0l4.5-4.5
	c3.2,2,7.5,1.6,10.3-1.2c3.2-3.2,3.2-8.5,0-11.7c-3.2-3.2-8.5-3.2-11.7,0C26.1,20,25.7,24.3,27.7,27.5z M38,19.8
	c-1.8-1.8-4.7-1.8-6.5,0c-1.8,1.8-1.8,4.7,0,6.5c1.8,1.8,4.7,1.8,6.5,0C39.8,24.5,39.8,21.6,38,19.8z"/>
</svg>
