<?xml version="1.0" encoding="utf-8"?>
<!-- Generator: Adobe Illustrator 23.0.4, SVG Export Plug-In . SVG Version: 6.00 Build 0)  -->
<svg version="1.1" id="Warstwa_1" xmlns="http://www.w3.org/2000/svg" xmlns:xlink="http://www.w3.org/1999/xlink" x="0px" y="0px"
	 viewBox="0 0 26 28" style="enable-background:new 0 0 26 28;" xml:space="preserve">
<style type="text/css">
	.st0{fill:#FFFFFF;}
</style>
<g>
	<path class="st0" d="M0,14C0,10,0,5.9,0,1.8c0-0.5,0.1-0.9,0.5-1.3c0.2-0.2,0.2-0.2,0.4,0c2.7,2.8,5.5,5.6,8.3,8.4
		c1.8,1.8,3.6,3.7,5.4,5.5c0.2,0.2,0.2,0.2,0,0.5c-4.4,4.3-8.7,8.6-13.2,13C1.1,28,0.9,28,0.6,27.9C0.2,27.5,0,27,0,26.4
		c0-2.4,0-4.8,0-7.2C0,17.5,0,15.7,0,14L0,14z"/>
	<path class="st0" d="M1.6,0c0.3,0,0.5,0.1,0.8,0.2c5.6,3.1,11.2,6.2,16.8,9.4c0.2,0.2,0.2,0.2,0.1,0.4c-1.2,1.2-2.5,2.5-3.7,3.7
		c-0.2,0.2-0.2,0.2-0.4,0C10.6,9.3,6.2,4.7,1.7,0.2C1.7,0.2,1.6,0.1,1.6,0z"/>
	<path class="st0" d="M2.8,27.7C6.9,23.6,11,19.5,15,15.4c0.2-0.2,0.4-0.2,0.6,0c1,1.1,2.1,2.1,3.1,3.2c0.2,0.2,0.2,0.2-0.1,0.4
		C13.5,21.9,8.3,24.7,3,27.6C3,27.6,2.9,27.7,2.8,27.7z"/>
	<path class="st0" d="M26,14.2c0,0.5-0.2,0.8-0.5,1c-0.2,0.2-0.5,0.3-0.8,0.5c-1.6,0.9-3.2,1.7-4.8,2.6c-0.2,0.2-0.3,0.1-0.5-0.1
		c-1.1-1.2-2.3-2.3-3.4-3.4c-0.2-0.2-0.2-0.2,0-0.4c1.3-1.3,2.6-2.6,4-3.9c0.2-0.2,0.2-0.2,0.5-0.1c1.6,0.9,3.1,1.7,4.7,2.6
		C25.6,13.2,26,13.6,26,14.2z"/>
</g>
</svg>
